<?xml version="1.0" encoding="utf-8" standalone="no"?>
<!DOCTYPE svg PUBLIC "-//W3C//DTD SVG 1.1//EN"
  "http://www.w3.org/Graphics/SVG/1.1/DTD/svg11.dtd">
<svg xmlns:xlink="http://www.w3.org/1999/xlink" width="684pt" height="236.16pt" viewBox="0 0 684 236.16" xmlns="http://www.w3.org/2000/svg" version="1.1">
 <metadata>
  <rdf:RDF xmlns:dc="http://purl.org/dc/elements/1.1/" xmlns:cc="http://creativecommons.org/ns#" xmlns:rdf="http://www.w3.org/1999/02/22-rdf-syntax-ns#">
   <cc:Work>
    <dc:type rdf:resource="http://purl.org/dc/dcmitype/StillImage"/>
    <dc:date>2025-12-22T19:18:00.885738</dc:date>
    <dc:format>image/svg+xml</dc:format>
    <dc:creator>
     <cc:Agent>
      <dc:title>Matplotlib v3.10.1, https://matplotlib.org/</dc:title>
     </cc:Agent>
    </dc:creator>
   </cc:Work>
  </rdf:RDF>
 </metadata>
 <defs>
  <style type="text/css">*{stroke-linejoin: round; stroke-linecap: butt}</style>
 </defs>
 <g id="figure_1">
  <g id="patch_1">
   <path d="M 0 236.16 
L 684 236.16 
L 684 0 
L 0 0 
z
" style="fill: #ffffff"/>
  </g>
  <g id="axes_1">
   <g id="patch_2">
    <path d="M 40.68 89.2512 
L 643.32 89.2512 
L 643.32 33.8112 
L 40.68 33.8112 
z
" clip-path="url(#pfd24fcfdc7)" style="fill: #f1f5f9; stroke: #e2e8f0; stroke-linejoin: miter"/>
   </g>
   <g id="patch_3">
    <path d="M 40.68 153.5616 
L 643.32 153.5616 
L 643.32 98.1216 
L 40.68 98.1216 
z
" clip-path="url(#pfd24fcfdc7)" style="fill: #f1f5f9; stroke: #e2e8f0; stroke-linejoin: miter"/>
   </g>
   <g id="patch_4">
    <path d="M 40.68 217.872 
L 643.32 217.872 
L 643.32 162.432 
L 40.68 162.432 
z
" clip-path="url(#pfd24fcfdc7)" style="fill: #f1f5f9; stroke: #e2e8f0; stroke-linejoin: miter"/>
   </g>
   <g id="patch_5">
    <path d="M 74.16 82.5984 
L 208.08 82.5984 
Q 221.472 82.5984 221.472 78.1632 
L 221.472 47.1168 
Q 221.472 42.6816 208.08 42.6816 
L 74.16 42.6816 
Q 60.768 42.6816 60.768 47.1168 
L 60.768 78.1632 
Q 60.768 82.5984 74.16 82.5984 
z
" clip-path="url(#pfd24fcfdc7)" style="fill: #f8fafc; stroke: #111827; stroke-linejoin: miter"/>
   </g>
   <g id="patch_6">
    <path d="M 234.864 82.5984 
L 368.784 82.5984 
Q 382.176 82.5984 382.176 78.1632 
L 382.176 47.1168 
Q 382.176 42.6816 368.784 42.6816 
L 234.864 42.6816 
Q 221.472 42.6816 221.472 47.1168 
L 221.472 78.1632 
Q 221.472 82.5984 234.864 82.5984 
z
" clip-path="url(#pfd24fcfdc7)" style="fill: #f8fafc; stroke: #111827; stroke-linejoin: miter"/>
   </g>
   <g id="patch_7">
    <path d="M 395.568 82.5984 
L 596.448 82.5984 
Q 609.84 82.5984 609.84 78.1632 
L 609.84 47.1168 
Q 609.84 42.6816 596.448 42.6816 
L 395.568 42.6816 
Q 382.176 42.6816 382.176 47.1168 
L 382.176 78.1632 
Q 382.176 82.5984 395.568 82.5984 
z
" clip-path="url(#pfd24fcfdc7)" style="fill: #f8fafc; stroke: #111827; stroke-linejoin: miter"/>
   </g>
   <g id="patch_8">
    <path d="M 87.552 146.9088 
L 596.448 146.9088 
Q 609.84 146.9088 609.84 142.4736 
L 609.84 111.4272 
Q 609.84 106.992 596.448 106.992 
L 87.552 106.992 
Q 74.16 106.992 74.16 111.4272 
L 74.16 142.4736 
Q 74.16 146.9088 87.552 146.9088 
z
" clip-path="url(#pfd24fcfdc7)" style="fill: #eef2ff; stroke: #2563eb; stroke-width: 1.2; stroke-linejoin: miter"/>
   </g>
   <g id="patch_9">
    <path d="M 74.16 211.2192 
L 234.864 211.2192 
Q 248.256 211.2192 248.256 206.784 
L 248.256 175.7376 
Q 248.256 171.3024 234.864 171.3024 
L 74.16 171.3024 
Q 60.768 171.3024 60.768 175.7376 
L 60.768 206.784 
Q 60.768 211.2192 74.16 211.2192 
z
" clip-path="url(#pfd24fcfdc7)" style="fill: #f8fafc; stroke: #111827; stroke-linejoin: miter"/>
   </g>
   <g id="patch_10">
    <path d="M 261.648 211.2192 
L 422.352 211.2192 
Q 435.744 211.2192 435.744 206.784 
L 435.744 175.7376 
Q 435.744 171.3024 422.352 171.3024 
L 261.648 171.3024 
Q 248.256 171.3024 248.256 175.7376 
L 248.256 206.784 
Q 248.256 211.2192 261.648 211.2192 
z
" clip-path="url(#pfd24fcfdc7)" style="fill: #f8fafc; stroke: #111827; stroke-linejoin: miter"/>
   </g>
   <g id="patch_11">
    <path d="M 449.136 211.2192 
L 596.448 211.2192 
Q 609.84 211.2192 609.84 206.784 
L 609.84 175.7376 
Q 609.84 171.3024 596.448 171.3024 
L 449.136 171.3024 
Q 435.744 171.3024 435.744 175.7376 
L 435.744 206.784 
Q 435.744 211.2192 449.136 211.2192 
z
" clip-path="url(#pfd24fcfdc7)" style="fill: #f8fafc; stroke: #111827; stroke-linejoin: miter"/>
   </g>
   <g id="text_1">
    <text style="font-weight: 700; font-size: 16px; font-family: 'STIXGeneral'; text-anchor: start; fill: #111827" x="20.592" y="24.9578" transform="rotate(-0 20.592 24.9578)">PerturbFM pipeline (reproducible by design)</text>
   </g>
   <g id="text_2">
    <text style="font-size: 12px; font-family: 'STIXGeneral'; text-anchor: start; fill: #475569" x="20.592" y="35.354025" transform="rotate(-0 20.592 35.354025)">Immutable splits + full metric panels + uncertainty outputs; all runs log hashes.</text>
   </g>
   <g id="text_3">
    <text style="font-weight: 700; font-size: 12px; font-family: 'STIXGeneral'; text-anchor: start; fill: #475569" x="47.376" y="50.97285" transform="rotate(-0 47.376 50.97285)">Inputs &amp; artifacts</text>
   </g>
   <g id="text_4">
    <text style="font-weight: 700; font-size: 12px; font-family: 'STIXGeneral'; text-anchor: start; fill: #475569" x="47.376" y="115.28325" transform="rotate(-0 47.376 115.28325)">Training / evaluation run</text>
   </g>
   <g id="text_5">
    <text style="font-weight: 700; font-size: 12px; font-family: 'STIXGeneral'; text-anchor: start; fill: #475569" x="47.376" y="179.63115" transform="rotate(-0 47.376 179.63115)">Outputs (run directory)</text>
   </g>
   <g id="text_6">
    <text style="font-size: 11px; font-family: 'STIXGeneral'; fill: #111827" transform="translate(107.673125 60.059684)">Dataset artifact</text>
    <text style="font-size: 11px; font-family: 'STIXGeneral'; fill: #111827" transform="translate(91.222969 70.335316)">(data.npz + meta.json)</text>
   </g>
   <g id="text_7">
    <text style="font-size: 8px; font-family: 'STIXGeneral'; fill: #111827" transform="translate(285.820875 57.026812)">SplitStore</text>
    <text style="font-size: 8px; font-family: 'STIXGeneral'; fill: #111827" transform="translate(279.932125 64.5)">(splits/*.json)</text>
    <text style="font-size: 8px; font-family: 'STIXGeneral'; fill: #111827" transform="translate(282.49525 71.980687)">hash-locked</text>
   </g>
   <g id="text_8">
    <text style="font-size: 8px; font-family: 'STIXGeneral'; fill: #111827" transform="translate(462.127375 57.026812)">External benchmarks</text>
    <text style="font-size: 8px; font-family: 'STIXGeneral'; fill: #111827" transform="translate(474.45675 64.5)">(third_party/)</text>
    <text style="font-size: 8px; font-family: 'STIXGeneral'; fill: #111827" transform="translate(461.674875 71.980687)">GPL-isolated harness</text>
   </g>
   <g id="text_9">
    <text style="font-size: 11px; font-family: 'STIXGeneral'; fill: #111827" transform="translate(301.829375 124.370084)">Train / Eval (CLI)</text>
    <text style="font-size: 11px; font-family: 'STIXGeneral'; fill: #111827" transform="translate(187.987109 134.645716)">baseline | v0 | v1 | v2 (CGIO)   +   uncertainty (ensemble / conformal)</text>
   </g>
   <g id="text_10">
    <text style="font-size: 11px; font-family: 'STIXGeneral'; fill: #111827" transform="translate(120.752313 188.68564)">predictions.npz</text>
    <text style="font-size: 11px; font-family: 'STIXGeneral'; fill: #111827" transform="translate(119.383328 198.961273)">(mean, var, idx)</text>
   </g>
   <g id="text_11">
    <text style="font-size: 10px; font-family: 'STIXGeneral'; fill: #111827" transform="translate(317.694531 188.915058)">metrics.json</text>
    <text style="font-size: 10px; font-family: 'STIXGeneral'; fill: #111827" transform="translate(278.578125 198.265917)">(scPerturBench + PerturBench)</text>
   </g>
   <g id="text_12">
    <text style="font-size: 11px; font-family: 'STIXGeneral'; fill: #111827" transform="translate(488.724656 188.680484)">calibration.json</text>
    <text style="font-size: 11px; font-family: 'STIXGeneral'; fill: #111827" transform="translate(493.054188 198.966429)">+ report.html</text>
   </g>
   <g id="patch_12">
    <path d="M 141.12 78.1632 
Q 243.2232 84.7512 340.596825 111.048254 
" style="fill: none; stroke: #111827; stroke-width: 1.3; stroke-linecap: round"/>
    <path d="M 336.588574 107.479791 
L 340.596825 111.048254 
L 335.337104 112.113777 
z
" style="fill: #111827; stroke: #111827; stroke-width: 1.3; stroke-linecap: round"/>
   </g>
   <g id="patch_13">
    <path d="M 301.824 78.1632 
Q 320.2488 96.804 340.793803 110.616281 
" style="fill: none; stroke: #111827; stroke-width: 1.3; stroke-linecap: round"/>
    <path d="M 338.149368 105.946489 
L 340.793803 110.616281 
L 335.471308 109.929954 
z
" style="fill: #111827; stroke: #111827; stroke-width: 1.3; stroke-linecap: round"/>
   </g>
   <g id="patch_14">
    <path d="M 489.312 78.1632 
Q 450.8424 84.7512 423.249743 110.58663 
" style="fill: none; stroke: #111827; stroke-width: 1.1; stroke-linecap: round"/>
    <path d="M 428.393945 109.057847 
L 423.249743 110.58663 
L 425.113238 105.553998 
z
" style="fill: #111827; stroke: #111827; stroke-width: 1.1; stroke-linecap: round"/>
   </g>
   <g id="patch_15">
    <path d="M 342 142.4736 
Q 244.908 159.1056 149.248577 175.492197 
" style="fill: none; stroke: #111827; stroke-width: 1.3; stroke-linecap: round"/>
    <path d="M 154.384885 177.047299 
L 149.248577 175.492197 
L 153.574443 172.316212 
z
" style="fill: #111827; stroke: #111827; stroke-width: 1.3; stroke-linecap: round"/>
   </g>
   <g id="patch_16">
    <path d="M 342 142.4736 
Q 335.304 159.1056 329.150813 174.389322 
" style="fill: none; stroke: #111827; stroke-width: 1.3; stroke-linecap: round"/>
    <path d="M 333.169799 170.832954 
L 329.150813 174.389322 
L 328.71711 169.040313 
z
" style="fill: #111827; stroke: #111827; stroke-width: 1.3; stroke-linecap: round"/>
   </g>
   <g id="patch_17">
    <path d="M 342 142.4736 
Q 425.7 159.1056 507.974428 175.454325 
" style="fill: none; stroke: #111827; stroke-width: 1.3; stroke-linecap: round"/>
    <path d="M 503.734234 172.164834 
L 507.974428 175.454325 
L 502.798718 176.872785 
z
" style="fill: #111827; stroke: #111827; stroke-width: 1.3; stroke-linecap: round"/>
   </g>
   <g id="patch_18">
    <path d="M 221.472 191.2608 
Q 238.212 191.2608 253.833966 191.2608 
" style="fill: none; stroke: #111827; stroke-linecap: round"/>
    <path d="M 249.033966 188.8608 
L 253.833966 191.2608 
L 249.033966 193.6608 
z
" style="fill: #111827; stroke: #111827; stroke-linecap: round"/>
   </g>
   <g id="patch_19">
    <path d="M 402.264 191.2608 
Q 419.004 191.2608 434.625966 191.2608 
" style="fill: none; stroke: #111827; stroke-linecap: round"/>
    <path d="M 429.825966 188.8608 
L 434.625966 191.2608 
L 429.825966 193.6608 
z
" style="fill: #111827; stroke: #111827; stroke-linecap: round"/>
   </g>
  </g>
 </g>
 <defs>
  <clipPath id="pfd24fcfdc7">
   <rect x="7.2" y="7.2" width="669.6" height="221.76"/>
  </clipPath>
 </defs>
</svg>
