<?xml version="1.0" encoding="utf-8" standalone="no"?>
<!DOCTYPE svg PUBLIC "-//W3C//DTD SVG 1.1//EN"
  "http://www.w3.org/Graphics/SVG/1.1/DTD/svg11.dtd">
<svg xmlns:xlink="http://www.w3.org/1999/xlink" width="460.8pt" height="374.76pt" viewBox="0 0 460.8 374.76" xmlns="http://www.w3.org/2000/svg" version="1.1">
 <metadata>
  <rdf:RDF xmlns:dc="http://purl.org/dc/elements/1.1/" xmlns:cc="http://creativecommons.org/ns#" xmlns:rdf="http://www.w3.org/1999/02/22-rdf-syntax-ns#">
   <cc:Work>
    <dc:type rdf:resource="http://purl.org/dc/dcmitype/StillImage"/>
    <dc:date>2025-12-22T18:43:30.839517</dc:date>
    <dc:format>image/svg+xml</dc:format>
    <dc:creator>
     <cc:Agent>
      <dc:title>Matplotlib v3.10.1, https://matplotlib.org/</dc:title>
     </cc:Agent>
    </dc:creator>
   </cc:Work>
  </rdf:RDF>
 </metadata>
 <defs>
  <style type="text/css">*{stroke-linejoin: round; stroke-linecap: butt}</style>
 </defs>
 <g id="figure_1">
  <g id="patch_1">
   <path d="M 0 374.76 
L 460.8 374.76 
L 460.8 0 
L 0 0 
z
" style="fill: #ffffff"/>
  </g>
  <g id="axes_1">
   <g id="patch_2">
    <path d="M 143.7984 81.43416 
L 331.2864 81.43416 
Q 340.2144 81.43416 340.2144 74.22696 
L 340.2144 38.19096 
Q 340.2144 30.98376 331.2864 30.98376 
L 143.7984 30.98376 
Q 134.8704 30.98376 134.8704 38.19096 
L 134.8704 74.22696 
Q 134.8704 81.43416 143.7984 81.43416 
z
" clip-path="url(#p4e00c45262)" style="fill: #0f172a; opacity: 0.08"/>
   </g>
   <g id="patch_3">
    <path d="M 141.12 79.272 
L 328.608 79.272 
Q 337.536 79.272 337.536 72.0648 
L 337.536 36.0288 
Q 337.536 28.8216 328.608 28.8216 
L 141.12 28.8216 
Q 132.192 28.8216 132.192 36.0288 
L 132.192 72.0648 
Q 132.192 79.272 141.12 79.272 
z
" clip-path="url(#p4e00c45262)" style="fill: #eef2ff; stroke: #111827; stroke-width: 1.2; stroke-linejoin: miter"/>
   </g>
   <g id="patch_4">
    <path d="M 143.7984 131.88456 
L 331.2864 131.88456 
Q 340.2144 131.88456 340.2144 124.67736 
L 340.2144 88.64136 
Q 340.2144 81.43416 331.2864 81.43416 
L 143.7984 81.43416 
Q 134.8704 81.43416 134.8704 88.64136 
L 134.8704 124.67736 
Q 134.8704 131.88456 143.7984 131.88456 
z
" clip-path="url(#p4e00c45262)" style="fill: #0f172a; opacity: 0.08"/>
   </g>
   <g id="patch_5">
    <path d="M 141.12 129.7224 
L 328.608 129.7224 
Q 337.536 129.7224 337.536 122.5152 
L 337.536 86.4792 
Q 337.536 79.272 328.608 79.272 
L 141.12 79.272 
Q 132.192 79.272 132.192 86.4792 
L 132.192 122.5152 
Q 132.192 129.7224 141.12 129.7224 
z
" clip-path="url(#p4e00c45262)" style="fill: #ecfeff; stroke: #111827; stroke-width: 1.2; stroke-linejoin: miter"/>
   </g>
   <g id="patch_6">
    <path d="M 143.7984 182.33496 
L 331.2864 182.33496 
Q 340.2144 182.33496 340.2144 175.12776 
L 340.2144 139.09176 
Q 340.2144 131.88456 331.2864 131.88456 
L 143.7984 131.88456 
Q 134.8704 131.88456 134.8704 139.09176 
L 134.8704 175.12776 
Q 134.8704 182.33496 143.7984 182.33496 
z
" clip-path="url(#p4e00c45262)" style="fill: #0f172a; opacity: 0.08"/>
   </g>
   <g id="patch_7">
    <path d="M 141.12 180.1728 
L 328.608 180.1728 
Q 337.536 180.1728 337.536 172.9656 
L 337.536 136.9296 
Q 337.536 129.7224 328.608 129.7224 
L 141.12 129.7224 
Q 132.192 129.7224 132.192 136.9296 
L 132.192 172.9656 
Q 132.192 180.1728 141.12 180.1728 
z
" clip-path="url(#p4e00c45262)" style="fill: #f0fdf4; stroke: #111827; stroke-width: 1.2; stroke-linejoin: miter"/>
   </g>
   <g id="patch_8">
    <path d="M 143.7984 232.78536 
L 331.2864 232.78536 
Q 340.2144 232.78536 340.2144 225.57816 
L 340.2144 189.54216 
Q 340.2144 182.33496 331.2864 182.33496 
L 143.7984 182.33496 
Q 134.8704 182.33496 134.8704 189.54216 
L 134.8704 225.57816 
Q 134.8704 232.78536 143.7984 232.78536 
z
" clip-path="url(#p4e00c45262)" style="fill: #0f172a; opacity: 0.08"/>
   </g>
   <g id="patch_9">
    <path d="M 141.12 230.6232 
L 328.608 230.6232 
Q 337.536 230.6232 337.536 223.416 
L 337.536 187.38 
Q 337.536 180.1728 328.608 180.1728 
L 141.12 180.1728 
Q 132.192 180.1728 132.192 187.38 
L 132.192 223.416 
Q 132.192 230.6232 141.12 230.6232 
z
" clip-path="url(#p4e00c45262)" style="fill: #fff7ed; stroke: #111827; stroke-width: 1.2; stroke-linejoin: miter"/>
   </g>
   <g id="patch_10">
    <path d="M 143.7984 283.23576 
L 331.2864 283.23576 
Q 340.2144 283.23576 340.2144 276.02856 
L 340.2144 239.99256 
Q 340.2144 232.78536 331.2864 232.78536 
L 143.7984 232.78536 
Q 134.8704 232.78536 134.8704 239.99256 
L 134.8704 276.02856 
Q 134.8704 283.23576 143.7984 283.23576 
z
" clip-path="url(#p4e00c45262)" style="fill: #0f172a; opacity: 0.08"/>
   </g>
   <g id="patch_11">
    <path d="M 141.12 281.0736 
L 328.608 281.0736 
Q 337.536 281.0736 337.536 273.8664 
L 337.536 237.8304 
Q 337.536 230.6232 328.608 230.6232 
L 141.12 230.6232 
Q 132.192 230.6232 132.192 237.8304 
L 132.192 273.8664 
Q 132.192 281.0736 141.12 281.0736 
z
" clip-path="url(#p4e00c45262)" style="fill: #f5f3ff; stroke: #111827; stroke-width: 1.2; stroke-linejoin: miter"/>
   </g>
   <g id="patch_12">
    <path d="M 45.5904 340.89336 
L 201.8304 340.89336 
Q 210.7584 340.89336 210.7584 333.68616 
L 210.7584 297.65016 
Q 210.7584 290.44296 201.8304 290.44296 
L 45.5904 290.44296 
Q 36.6624 290.44296 36.6624 297.65016 
L 36.6624 333.68616 
Q 36.6624 340.89336 45.5904 340.89336 
z
" clip-path="url(#p4e00c45262)" style="fill: #0f172a; opacity: 0.08"/>
   </g>
   <g id="patch_13">
    <path d="M 42.912 338.7312 
L 199.152 338.7312 
Q 208.08 338.7312 208.08 331.524 
L 208.08 295.488 
Q 208.08 288.2808 199.152 288.2808 
L 42.912 288.2808 
Q 33.984 288.2808 33.984 295.488 
L 33.984 331.524 
Q 33.984 338.7312 42.912 338.7312 
z
" clip-path="url(#p4e00c45262)" style="fill: #f8fafc; stroke: #111827; stroke-width: 1.2; stroke-linejoin: miter"/>
   </g>
   <g id="patch_14">
    <path d="M 264.3264 340.89336 
L 420.5664 340.89336 
Q 429.4944 340.89336 429.4944 333.68616 
L 429.4944 297.65016 
Q 429.4944 290.44296 420.5664 290.44296 
L 264.3264 290.44296 
Q 255.3984 290.44296 255.3984 297.65016 
L 255.3984 333.68616 
Q 255.3984 340.89336 264.3264 340.89336 
z
" clip-path="url(#p4e00c45262)" style="fill: #0f172a; opacity: 0.08"/>
   </g>
   <g id="patch_15">
    <path d="M 261.648 338.7312 
L 417.888 338.7312 
Q 426.816 338.7312 426.816 331.524 
L 426.816 295.488 
Q 426.816 288.2808 417.888 288.2808 
L 261.648 288.2808 
Q 252.72 288.2808 252.72 295.488 
L 252.72 331.524 
Q 252.72 338.7312 261.648 338.7312 
z
" clip-path="url(#p4e00c45262)" style="fill: #f8fafc; stroke: #111827; stroke-width: 1.2; stroke-linejoin: miter"/>
   </g>
   <g id="patch_16">
    <path d="M 32.1984 182.33496 
L 121.4784 182.33496 
Q 130.4064 182.33496 130.4064 175.12776 
L 130.4064 139.09176 
Q 130.4064 131.88456 121.4784 131.88456 
L 32.1984 131.88456 
Q 23.2704 131.88456 23.2704 139.09176 
L 23.2704 175.12776 
Q 23.2704 182.33496 32.1984 182.33496 
z
" clip-path="url(#p4e00c45262)" style="fill: #0f172a; opacity: 0.08"/>
   </g>
   <g id="patch_17">
    <path d="M 29.52 180.1728 
L 118.8 180.1728 
Q 127.728 180.1728 127.728 172.9656 
L 127.728 136.9296 
Q 127.728 129.7224 118.8 129.7224 
L 29.52 129.7224 
Q 20.592 129.7224 20.592 136.9296 
L 20.592 172.9656 
Q 20.592 180.1728 29.52 180.1728 
z
" clip-path="url(#p4e00c45262)" style="fill: #e2e8f0; stroke: #111827; stroke-width: 1.2; stroke-linejoin: miter"/>
   </g>
   <g id="patch_18">
    <path d="M 32.1984 232.78536 
L 121.4784 232.78536 
Q 130.4064 232.78536 130.4064 225.57816 
L 130.4064 189.54216 
Q 130.4064 182.33496 121.4784 182.33496 
L 32.1984 182.33496 
Q 23.2704 182.33496 23.2704 189.54216 
L 23.2704 225.57816 
Q 23.2704 232.78536 32.1984 232.78536 
z
" clip-path="url(#p4e00c45262)" style="fill: #0f172a; opacity: 0.08"/>
   </g>
   <g id="patch_19">
    <path d="M 29.52 230.6232 
L 118.8 230.6232 
Q 127.728 230.6232 127.728 223.416 
L 127.728 187.38 
Q 127.728 180.1728 118.8 180.1728 
L 29.52 180.1728 
Q 20.592 180.1728 20.592 187.38 
L 20.592 223.416 
Q 20.592 230.6232 29.52 230.6232 
z
" clip-path="url(#p4e00c45262)" style="fill: #e2e8f0; stroke: #111827; stroke-width: 1.2; stroke-linejoin: miter"/>
   </g>
   <g id="text_1">
    <!-- pert_genes -->
    <g style="fill: #0f172a" transform="translate(204.210094 50.617378) scale(0.11 -0.11)">
     <defs>
      <path id="DejaVuSans-70" d="M 1159 525 
L 1159 -1331 
L 581 -1331 
L 581 3500 
L 1159 3500 
L 1159 2969 
Q 1341 3281 1617 3432 
Q 1894 3584 2278 3584 
Q 2916 3584 3314 3078 
Q 3713 2572 3713 1747 
Q 3713 922 3314 415 
Q 2916 -91 2278 -91 
Q 1894 -91 1617 61 
Q 1341 213 1159 525 
z
M 3116 1747 
Q 3116 2381 2855 2742 
Q 2594 3103 2138 3103 
Q 1681 3103 1420 2742 
Q 1159 2381 1159 1747 
Q 1159 1113 1420 752 
Q 1681 391 2138 391 
Q 2594 391 2855 752 
Q 3116 1113 3116 1747 
z
" transform="scale(0.015625)"/>
      <path id="DejaVuSans-65" d="M 3597 1894 
L 3597 1613 
L 953 1613 
Q 991 1019 1311 708 
Q 1631 397 2203 397 
Q 2534 397 2845 478 
Q 3156 559 3463 722 
L 3463 178 
Q 3153 47 2828 -22 
Q 2503 -91 2169 -91 
Q 1331 -91 842 396 
Q 353 884 353 1716 
Q 353 2575 817 3079 
Q 1281 3584 2069 3584 
Q 2775 3584 3186 3129 
Q 3597 2675 3597 1894 
z
M 3022 2063 
Q 3016 2534 2758 2815 
Q 2500 3097 2075 3097 
Q 1594 3097 1305 2825 
Q 1016 2553 972 2059 
L 3022 2063 
z
" transform="scale(0.015625)"/>
      <path id="DejaVuSans-72" d="M 2631 2963 
Q 2534 3019 2420 3045 
Q 2306 3072 2169 3072 
Q 1681 3072 1420 2755 
Q 1159 2438 1159 1844 
L 1159 0 
L 581 0 
L 581 3500 
L 1159 3500 
L 1159 2956 
Q 1341 3275 1631 3429 
Q 1922 3584 2338 3584 
Q 2397 3584 2469 3576 
Q 2541 3569 2628 3553 
L 2631 2963 
z
" transform="scale(0.015625)"/>
      <path id="DejaVuSans-74" d="M 1172 4494 
L 1172 3500 
L 2356 3500 
L 2356 3053 
L 1172 3053 
L 1172 1153 
Q 1172 725 1289 603 
Q 1406 481 1766 481 
L 2356 481 
L 2356 0 
L 1766 0 
Q 1100 0 847 248 
Q 594 497 594 1153 
L 594 3053 
L 172 3053 
L 172 3500 
L 594 3500 
L 594 4494 
L 1172 4494 
z
" transform="scale(0.015625)"/>
      <path id="DejaVuSans-5f" d="M 3263 -1063 
L 3263 -1509 
L -63 -1509 
L -63 -1063 
L 3263 -1063 
z
" transform="scale(0.015625)"/>
      <path id="DejaVuSans-67" d="M 2906 1791 
Q 2906 2416 2648 2759 
Q 2391 3103 1925 3103 
Q 1463 3103 1205 2759 
Q 947 2416 947 1791 
Q 947 1169 1205 825 
Q 1463 481 1925 481 
Q 2391 481 2648 825 
Q 2906 1169 2906 1791 
z
M 3481 434 
Q 3481 -459 3084 -895 
Q 2688 -1331 1869 -1331 
Q 1566 -1331 1297 -1286 
Q 1028 -1241 775 -1147 
L 775 -588 
Q 1028 -725 1275 -790 
Q 1522 -856 1778 -856 
Q 2344 -856 2625 -561 
Q 2906 -266 2906 331 
L 2906 616 
Q 2728 306 2450 153 
Q 2172 0 1784 0 
Q 1141 0 747 490 
Q 353 981 353 1791 
Q 353 2603 747 3093 
Q 1141 3584 1784 3584 
Q 2172 3584 2450 3431 
Q 2728 3278 2906 2969 
L 2906 3500 
L 3481 3500 
L 3481 434 
z
" transform="scale(0.015625)"/>
      <path id="DejaVuSans-6e" d="M 3513 2113 
L 3513 0 
L 2938 0 
L 2938 2094 
Q 2938 2591 2744 2837 
Q 2550 3084 2163 3084 
Q 1697 3084 1428 2787 
Q 1159 2491 1159 1978 
L 1159 0 
L 581 0 
L 581 3500 
L 1159 3500 
L 1159 2956 
Q 1366 3272 1645 3428 
Q 1925 3584 2291 3584 
Q 2894 3584 3203 3211 
Q 3513 2838 3513 2113 
z
" transform="scale(0.015625)"/>
      <path id="DejaVuSans-73" d="M 2834 3397 
L 2834 2853 
Q 2591 2978 2328 3040 
Q 2066 3103 1784 3103 
Q 1356 3103 1142 2972 
Q 928 2841 928 2578 
Q 928 2378 1081 2264 
Q 1234 2150 1697 2047 
L 1894 2003 
Q 2506 1872 2764 1633 
Q 3022 1394 3022 966 
Q 3022 478 2636 193 
Q 2250 -91 1575 -91 
Q 1294 -91 989 -36 
Q 684 19 347 128 
L 347 722 
Q 666 556 975 473 
Q 1284 391 1588 391 
Q 1994 391 2212 530 
Q 2431 669 2431 922 
Q 2431 1156 2273 1281 
Q 2116 1406 1581 1522 
L 1381 1569 
Q 847 1681 609 1914 
Q 372 2147 372 2553 
Q 372 3047 722 3315 
Q 1072 3584 1716 3584 
Q 2034 3584 2315 3537 
Q 2597 3491 2834 3397 
z
" transform="scale(0.015625)"/>
     </defs>
     <use xlink:href="#DejaVuSans-70"/>
     <use xlink:href="#DejaVuSans-65" transform="translate(63.476562 0)"/>
     <use xlink:href="#DejaVuSans-72" transform="translate(125 0)"/>
     <use xlink:href="#DejaVuSans-74" transform="translate(166.113281 0)"/>
     <use xlink:href="#DejaVuSans-5f" transform="translate(205.322266 0)"/>
     <use xlink:href="#DejaVuSans-67" transform="translate(255.322266 0)"/>
     <use xlink:href="#DejaVuSans-65" transform="translate(318.798828 0)"/>
     <use xlink:href="#DejaVuSans-6e" transform="translate(380.322266 0)"/>
     <use xlink:href="#DejaVuSans-65" transform="translate(443.701172 0)"/>
     <use xlink:href="#DejaVuSans-73" transform="translate(505.224609 0)"/>
    </g>
    <!-- (list per sample) -->
    <g style="fill: #0f172a" transform="translate(189.865406 63.240909) scale(0.11 -0.11)">
     <defs>
      <path id="DejaVuSans-28" d="M 1984 4856 
Q 1566 4138 1362 3434 
Q 1159 2731 1159 2009 
Q 1159 1288 1364 580 
Q 1569 -128 1984 -844 
L 1484 -844 
Q 1016 -109 783 600 
Q 550 1309 550 2009 
Q 550 2706 781 3412 
Q 1013 4119 1484 4856 
L 1984 4856 
z
" transform="scale(0.015625)"/>
      <path id="DejaVuSans-6c" d="M 603 4863 
L 1178 4863 
L 1178 0 
L 603 0 
L 603 4863 
z
" transform="scale(0.015625)"/>
      <path id="DejaVuSans-69" d="M 603 3500 
L 1178 3500 
L 1178 0 
L 603 0 
L 603 3500 
z
M 603 4863 
L 1178 4863 
L 1178 4134 
L 603 4134 
L 603 4863 
z
" transform="scale(0.015625)"/>
      <path id="DejaVuSans-20" transform="scale(0.015625)"/>
      <path id="DejaVuSans-61" d="M 2194 1759 
Q 1497 1759 1228 1600 
Q 959 1441 959 1056 
Q 959 750 1161 570 
Q 1363 391 1709 391 
Q 2188 391 2477 730 
Q 2766 1069 2766 1631 
L 2766 1759 
L 2194 1759 
z
M 3341 1997 
L 3341 0 
L 2766 0 
L 2766 531 
Q 2569 213 2275 61 
Q 1981 -91 1556 -91 
Q 1019 -91 701 211 
Q 384 513 384 1019 
Q 384 1609 779 1909 
Q 1175 2209 1959 2209 
L 2766 2209 
L 2766 2266 
Q 2766 2663 2505 2880 
Q 2244 3097 1772 3097 
Q 1472 3097 1187 3025 
Q 903 2953 641 2809 
L 641 3341 
Q 956 3463 1253 3523 
Q 1550 3584 1831 3584 
Q 2591 3584 2966 3190 
Q 3341 2797 3341 1997 
z
" transform="scale(0.015625)"/>
      <path id="DejaVuSans-6d" d="M 3328 2828 
Q 3544 3216 3844 3400 
Q 4144 3584 4550 3584 
Q 5097 3584 5394 3201 
Q 5691 2819 5691 2113 
L 5691 0 
L 5113 0 
L 5113 2094 
Q 5113 2597 4934 2840 
Q 4756 3084 4391 3084 
Q 3944 3084 3684 2787 
Q 3425 2491 3425 1978 
L 3425 0 
L 2847 0 
L 2847 2094 
Q 2847 2600 2669 2842 
Q 2491 3084 2119 3084 
Q 1678 3084 1418 2786 
Q 1159 2488 1159 1978 
L 1159 0 
L 581 0 
L 581 3500 
L 1159 3500 
L 1159 2956 
Q 1356 3278 1631 3431 
Q 1906 3584 2284 3584 
Q 2666 3584 2933 3390 
Q 3200 3197 3328 2828 
z
" transform="scale(0.015625)"/>
      <path id="DejaVuSans-29" d="M 513 4856 
L 1013 4856 
Q 1481 4119 1714 3412 
Q 1947 2706 1947 2009 
Q 1947 1309 1714 600 
Q 1481 -109 1013 -844 
L 513 -844 
Q 928 -128 1133 580 
Q 1338 1288 1338 2009 
Q 1338 2731 1133 3434 
Q 928 4138 513 4856 
z
" transform="scale(0.015625)"/>
     </defs>
     <use xlink:href="#DejaVuSans-28"/>
     <use xlink:href="#DejaVuSans-6c" transform="translate(39.013672 0)"/>
     <use xlink:href="#DejaVuSans-69" transform="translate(66.796875 0)"/>
     <use xlink:href="#DejaVuSans-73" transform="translate(94.580078 0)"/>
     <use xlink:href="#DejaVuSans-74" transform="translate(146.679688 0)"/>
     <use xlink:href="#DejaVuSans-20" transform="translate(185.888672 0)"/>
     <use xlink:href="#DejaVuSans-70" transform="translate(217.675781 0)"/>
     <use xlink:href="#DejaVuSans-65" transform="translate(281.152344 0)"/>
     <use xlink:href="#DejaVuSans-72" transform="translate(342.675781 0)"/>
     <use xlink:href="#DejaVuSans-20" transform="translate(383.789062 0)"/>
     <use xlink:href="#DejaVuSans-73" transform="translate(415.576172 0)"/>
     <use xlink:href="#DejaVuSans-61" transform="translate(467.675781 0)"/>
     <use xlink:href="#DejaVuSans-6d" transform="translate(528.955078 0)"/>
     <use xlink:href="#DejaVuSans-70" transform="translate(626.367188 0)"/>
     <use xlink:href="#DejaVuSans-6c" transform="translate(689.84375 0)"/>
     <use xlink:href="#DejaVuSans-65" transform="translate(717.626953 0)"/>
     <use xlink:href="#DejaVuSans-29" transform="translate(779.150391 0)"/>
    </g>
   </g>
   <g id="text_2">
    <!-- pert_mask -->
    <g style="fill: #0f172a" transform="translate(206.043141 101.220747) scale(0.11 -0.11)">
     <defs>
      <path id="DejaVuSans-6b" d="M 581 4863 
L 1159 4863 
L 1159 1991 
L 2875 3500 
L 3609 3500 
L 1753 1863 
L 3688 0 
L 2938 0 
L 1159 1709 
L 1159 0 
L 581 0 
L 581 4863 
z
" transform="scale(0.015625)"/>
     </defs>
     <use xlink:href="#DejaVuSans-70"/>
     <use xlink:href="#DejaVuSans-65" transform="translate(63.476562 0)"/>
     <use xlink:href="#DejaVuSans-72" transform="translate(125 0)"/>
     <use xlink:href="#DejaVuSans-74" transform="translate(166.113281 0)"/>
     <use xlink:href="#DejaVuSans-5f" transform="translate(205.322266 0)"/>
     <use xlink:href="#DejaVuSans-6d" transform="translate(255.322266 0)"/>
     <use xlink:href="#DejaVuSans-61" transform="translate(352.734375 0)"/>
     <use xlink:href="#DejaVuSans-73" transform="translate(414.013672 0)"/>
     <use xlink:href="#DejaVuSans-6b" transform="translate(466.113281 0)"/>
    </g>
    <!-- (B × G) -->
    <g style="fill: #0f172a" transform="translate(214.432359 113.844278) scale(0.11 -0.11)">
     <defs>
      <path id="DejaVuSans-42" d="M 1259 2228 
L 1259 519 
L 2272 519 
Q 2781 519 3026 730 
Q 3272 941 3272 1375 
Q 3272 1813 3026 2020 
Q 2781 2228 2272 2228 
L 1259 2228 
z
M 1259 4147 
L 1259 2741 
L 2194 2741 
Q 2656 2741 2882 2914 
Q 3109 3088 3109 3444 
Q 3109 3797 2882 3972 
Q 2656 4147 2194 4147 
L 1259 4147 
z
M 628 4666 
L 2241 4666 
Q 2963 4666 3353 4366 
Q 3744 4066 3744 3513 
Q 3744 3084 3544 2831 
Q 3344 2578 2956 2516 
Q 3422 2416 3680 2098 
Q 3938 1781 3938 1306 
Q 3938 681 3513 340 
Q 3088 0 2303 0 
L 628 0 
L 628 4666 
z
" transform="scale(0.015625)"/>
      <path id="DejaVuSans-d7" d="M 4488 3438 
L 3059 2003 
L 4488 575 
L 4116 197 
L 2681 1631 
L 1247 197 
L 878 575 
L 2303 2003 
L 878 3438 
L 1247 3816 
L 2681 2381 
L 4116 3816 
L 4488 3438 
z
" transform="scale(0.015625)"/>
      <path id="DejaVuSans-47" d="M 3809 666 
L 3809 1919 
L 2778 1919 
L 2778 2438 
L 4434 2438 
L 4434 434 
Q 4069 175 3628 42 
Q 3188 -91 2688 -91 
Q 1594 -91 976 548 
Q 359 1188 359 2328 
Q 359 3472 976 4111 
Q 1594 4750 2688 4750 
Q 3144 4750 3555 4637 
Q 3966 4525 4313 4306 
L 4313 3634 
Q 3963 3931 3569 4081 
Q 3175 4231 2741 4231 
Q 1884 4231 1454 3753 
Q 1025 3275 1025 2328 
Q 1025 1384 1454 906 
Q 1884 428 2741 428 
Q 3075 428 3337 486 
Q 3600 544 3809 666 
z
" transform="scale(0.015625)"/>
     </defs>
     <use xlink:href="#DejaVuSans-28"/>
     <use xlink:href="#DejaVuSans-42" transform="translate(39.013672 0)"/>
     <use xlink:href="#DejaVuSans-20" transform="translate(107.617188 0)"/>
     <use xlink:href="#DejaVuSans-d7" transform="translate(139.404297 0)"/>
     <use xlink:href="#DejaVuSans-20" transform="translate(223.193359 0)"/>
     <use xlink:href="#DejaVuSans-47" transform="translate(254.980469 0)"/>
     <use xlink:href="#DejaVuSans-29" transform="translate(332.470703 0)"/>
    </g>
   </g>
   <g id="text_3">
    <!-- Graph propagation -->
    <g style="fill: #0f172a" transform="translate(182.992125 151.824116) scale(0.11 -0.11)">
     <defs>
      <path id="DejaVuSans-68" d="M 3513 2113 
L 3513 0 
L 2938 0 
L 2938 2094 
Q 2938 2591 2744 2837 
Q 2550 3084 2163 3084 
Q 1697 3084 1428 2787 
Q 1159 2491 1159 1978 
L 1159 0 
L 581 0 
L 581 4863 
L 1159 4863 
L 1159 2956 
Q 1366 3272 1645 3428 
Q 1925 3584 2291 3584 
Q 2894 3584 3203 3211 
Q 3513 2838 3513 2113 
z
" transform="scale(0.015625)"/>
      <path id="DejaVuSans-6f" d="M 1959 3097 
Q 1497 3097 1228 2736 
Q 959 2375 959 1747 
Q 959 1119 1226 758 
Q 1494 397 1959 397 
Q 2419 397 2687 759 
Q 2956 1122 2956 1747 
Q 2956 2369 2687 2733 
Q 2419 3097 1959 3097 
z
M 1959 3584 
Q 2709 3584 3137 3096 
Q 3566 2609 3566 1747 
Q 3566 888 3137 398 
Q 2709 -91 1959 -91 
Q 1206 -91 779 398 
Q 353 888 353 1747 
Q 353 2609 779 3096 
Q 1206 3584 1959 3584 
z
" transform="scale(0.015625)"/>
     </defs>
     <use xlink:href="#DejaVuSans-47"/>
     <use xlink:href="#DejaVuSans-72" transform="translate(77.490234 0)"/>
     <use xlink:href="#DejaVuSans-61" transform="translate(118.603516 0)"/>
     <use xlink:href="#DejaVuSans-70" transform="translate(179.882812 0)"/>
     <use xlink:href="#DejaVuSans-68" transform="translate(243.359375 0)"/>
     <use xlink:href="#DejaVuSans-20" transform="translate(306.738281 0)"/>
     <use xlink:href="#DejaVuSans-70" transform="translate(338.525391 0)"/>
     <use xlink:href="#DejaVuSans-72" transform="translate(402.001953 0)"/>
     <use xlink:href="#DejaVuSans-6f" transform="translate(440.865234 0)"/>
     <use xlink:href="#DejaVuSans-70" transform="translate(502.046875 0)"/>
     <use xlink:href="#DejaVuSans-61" transform="translate(565.523438 0)"/>
     <use xlink:href="#DejaVuSans-67" transform="translate(626.802734 0)"/>
     <use xlink:href="#DejaVuSans-61" transform="translate(690.279297 0)"/>
     <use xlink:href="#DejaVuSans-74" transform="translate(751.558594 0)"/>
     <use xlink:href="#DejaVuSans-69" transform="translate(790.767578 0)"/>
     <use xlink:href="#DejaVuSans-6f" transform="translate(818.550781 0)"/>
     <use xlink:href="#DejaVuSans-6e" transform="translate(879.732422 0)"/>
    </g>
    <!-- (single/multi‑graph, gated) -->
    <g style="fill: #0f172a" transform="translate(160.907047 164.141709) scale(0.11 -0.11)">
     <defs>
      <path id="DejaVuSans-2f" d="M 1625 4666 
L 2156 4666 
L 531 -594 
L 0 -594 
L 1625 4666 
z
" transform="scale(0.015625)"/>
      <path id="DejaVuSans-75" d="M 544 1381 
L 544 3500 
L 1119 3500 
L 1119 1403 
Q 1119 906 1312 657 
Q 1506 409 1894 409 
Q 2359 409 2629 706 
Q 2900 1003 2900 1516 
L 2900 3500 
L 3475 3500 
L 3475 0 
L 2900 0 
L 2900 538 
Q 2691 219 2414 64 
Q 2138 -91 1772 -91 
Q 1169 -91 856 284 
Q 544 659 544 1381 
z
M 1991 3584 
L 1991 3584 
z
" transform="scale(0.015625)"/>
      <path id="DejaVuSans-2011" d="M 313 2009 
L 1997 2009 
L 1997 1497 
L 313 1497 
L 313 2009 
z
" transform="scale(0.015625)"/>
      <path id="DejaVuSans-2c" d="M 750 794 
L 1409 794 
L 1409 256 
L 897 -744 
L 494 -744 
L 750 256 
L 750 794 
z
" transform="scale(0.015625)"/>
      <path id="DejaVuSans-64" d="M 2906 2969 
L 2906 4863 
L 3481 4863 
L 3481 0 
L 2906 0 
L 2906 525 
Q 2725 213 2448 61 
Q 2172 -91 1784 -91 
Q 1150 -91 751 415 
Q 353 922 353 1747 
Q 353 2572 751 3078 
Q 1150 3584 1784 3584 
Q 2172 3584 2448 3432 
Q 2725 3281 2906 2969 
z
M 947 1747 
Q 947 1113 1208 752 
Q 1469 391 1925 391 
Q 2381 391 2643 752 
Q 2906 1113 2906 1747 
Q 2906 2381 2643 2742 
Q 2381 3103 1925 3103 
Q 1469 3103 1208 2742 
Q 947 2381 947 1747 
z
" transform="scale(0.015625)"/>
     </defs>
     <use xlink:href="#DejaVuSans-28"/>
     <use xlink:href="#DejaVuSans-73" transform="translate(39.013672 0)"/>
     <use xlink:href="#DejaVuSans-69" transform="translate(91.113281 0)"/>
     <use xlink:href="#DejaVuSans-6e" transform="translate(118.896484 0)"/>
     <use xlink:href="#DejaVuSans-67" transform="translate(182.275391 0)"/>
     <use xlink:href="#DejaVuSans-6c" transform="translate(245.751953 0)"/>
     <use xlink:href="#DejaVuSans-65" transform="translate(273.535156 0)"/>
     <use xlink:href="#DejaVuSans-2f" transform="translate(335.058594 0)"/>
     <use xlink:href="#DejaVuSans-6d" transform="translate(368.75 0)"/>
     <use xlink:href="#DejaVuSans-75" transform="translate(466.162109 0)"/>
     <use xlink:href="#DejaVuSans-6c" transform="translate(529.541016 0)"/>
     <use xlink:href="#DejaVuSans-74" transform="translate(557.324219 0)"/>
     <use xlink:href="#DejaVuSans-69" transform="translate(596.533203 0)"/>
     <use xlink:href="#DejaVuSans-2011" transform="translate(624.316406 0)"/>
     <use xlink:href="#DejaVuSans-67" transform="translate(660.400391 0)"/>
     <use xlink:href="#DejaVuSans-72" transform="translate(723.876953 0)"/>
     <use xlink:href="#DejaVuSans-61" transform="translate(764.990234 0)"/>
     <use xlink:href="#DejaVuSans-70" transform="translate(826.269531 0)"/>
     <use xlink:href="#DejaVuSans-68" transform="translate(889.746094 0)"/>
     <use xlink:href="#DejaVuSans-2c" transform="translate(953.125 0)"/>
     <use xlink:href="#DejaVuSans-20" transform="translate(984.912109 0)"/>
     <use xlink:href="#DejaVuSans-67" transform="translate(1016.699219 0)"/>
     <use xlink:href="#DejaVuSans-61" transform="translate(1080.175781 0)"/>
     <use xlink:href="#DejaVuSans-74" transform="translate(1141.455078 0)"/>
     <use xlink:href="#DejaVuSans-65" transform="translate(1180.664062 0)"/>
     <use xlink:href="#DejaVuSans-64" transform="translate(1242.1875 0)"/>
     <use xlink:href="#DejaVuSans-29" transform="translate(1305.664062 0)"/>
    </g>
   </g>
   <g id="text_4">
    <!-- h embedding -->
    <g style="fill: #0f172a" transform="translate(198.524469 202.274516) scale(0.11 -0.11)">
     <defs>
      <path id="DejaVuSans-62" d="M 3116 1747 
Q 3116 2381 2855 2742 
Q 2594 3103 2138 3103 
Q 1681 3103 1420 2742 
Q 1159 2381 1159 1747 
Q 1159 1113 1420 752 
Q 1681 391 2138 391 
Q 2594 391 2855 752 
Q 3116 1113 3116 1747 
z
M 1159 2969 
Q 1341 3281 1617 3432 
Q 1894 3584 2278 3584 
Q 2916 3584 3314 3078 
Q 3713 2572 3713 1747 
Q 3713 922 3314 415 
Q 2916 -91 2278 -91 
Q 1894 -91 1617 61 
Q 1341 213 1159 525 
L 1159 0 
L 581 0 
L 581 4863 
L 1159 4863 
L 1159 2969 
z
" transform="scale(0.015625)"/>
     </defs>
     <use xlink:href="#DejaVuSans-68"/>
     <use xlink:href="#DejaVuSans-20" transform="translate(63.378906 0)"/>
     <use xlink:href="#DejaVuSans-65" transform="translate(95.166016 0)"/>
     <use xlink:href="#DejaVuSans-6d" transform="translate(156.689453 0)"/>
     <use xlink:href="#DejaVuSans-62" transform="translate(254.101562 0)"/>
     <use xlink:href="#DejaVuSans-65" transform="translate(317.578125 0)"/>
     <use xlink:href="#DejaVuSans-64" transform="translate(379.101562 0)"/>
     <use xlink:href="#DejaVuSans-64" transform="translate(442.578125 0)"/>
     <use xlink:href="#DejaVuSans-69" transform="translate(506.054688 0)"/>
     <use xlink:href="#DejaVuSans-6e" transform="translate(533.837891 0)"/>
     <use xlink:href="#DejaVuSans-67" transform="translate(597.216797 0)"/>
    </g>
    <!-- (B × d) -->
    <g style="fill: #0f172a" transform="translate(215.202359 214.592109) scale(0.11 -0.11)">
     <use xlink:href="#DejaVuSans-28"/>
     <use xlink:href="#DejaVuSans-42" transform="translate(39.013672 0)"/>
     <use xlink:href="#DejaVuSans-20" transform="translate(107.617188 0)"/>
     <use xlink:href="#DejaVuSans-d7" transform="translate(139.404297 0)"/>
     <use xlink:href="#DejaVuSans-20" transform="translate(223.193359 0)"/>
     <use xlink:href="#DejaVuSans-64" transform="translate(254.980469 0)"/>
     <use xlink:href="#DejaVuSans-29" transform="translate(318.457031 0)"/>
    </g>
   </g>
   <g id="text_5">
    <!-- Contextual low‑rank operator -->
    <g style="fill: #0f172a" transform="translate(154.104234 258.883713) scale(0.11 -0.11)">
     <defs>
      <path id="DejaVuSans-43" d="M 4122 4306 
L 4122 3641 
Q 3803 3938 3442 4084 
Q 3081 4231 2675 4231 
Q 1875 4231 1450 3742 
Q 1025 3253 1025 2328 
Q 1025 1406 1450 917 
Q 1875 428 2675 428 
Q 3081 428 3442 575 
Q 3803 722 4122 1019 
L 4122 359 
Q 3791 134 3420 21 
Q 3050 -91 2638 -91 
Q 1578 -91 968 557 
Q 359 1206 359 2328 
Q 359 3453 968 4101 
Q 1578 4750 2638 4750 
Q 3056 4750 3426 4639 
Q 3797 4528 4122 4306 
z
" transform="scale(0.015625)"/>
      <path id="DejaVuSans-78" d="M 3513 3500 
L 2247 1797 
L 3578 0 
L 2900 0 
L 1881 1375 
L 863 0 
L 184 0 
L 1544 1831 
L 300 3500 
L 978 3500 
L 1906 2253 
L 2834 3500 
L 3513 3500 
z
" transform="scale(0.015625)"/>
      <path id="DejaVuSans-77" d="M 269 3500 
L 844 3500 
L 1563 769 
L 2278 3500 
L 2956 3500 
L 3675 769 
L 4391 3500 
L 4966 3500 
L 4050 0 
L 3372 0 
L 2619 2869 
L 1863 0 
L 1184 0 
L 269 3500 
z
" transform="scale(0.015625)"/>
     </defs>
     <use xlink:href="#DejaVuSans-43"/>
     <use xlink:href="#DejaVuSans-6f" transform="translate(69.824219 0)"/>
     <use xlink:href="#DejaVuSans-6e" transform="translate(131.005859 0)"/>
     <use xlink:href="#DejaVuSans-74" transform="translate(194.384766 0)"/>
     <use xlink:href="#DejaVuSans-65" transform="translate(233.59375 0)"/>
     <use xlink:href="#DejaVuSans-78" transform="translate(293.367188 0)"/>
     <use xlink:href="#DejaVuSans-74" transform="translate(352.546875 0)"/>
     <use xlink:href="#DejaVuSans-75" transform="translate(391.755859 0)"/>
     <use xlink:href="#DejaVuSans-61" transform="translate(455.134766 0)"/>
     <use xlink:href="#DejaVuSans-6c" transform="translate(516.414062 0)"/>
     <use xlink:href="#DejaVuSans-20" transform="translate(544.197266 0)"/>
     <use xlink:href="#DejaVuSans-6c" transform="translate(575.984375 0)"/>
     <use xlink:href="#DejaVuSans-6f" transform="translate(603.767578 0)"/>
     <use xlink:href="#DejaVuSans-77" transform="translate(664.949219 0)"/>
     <use xlink:href="#DejaVuSans-2011" transform="translate(746.736328 0)"/>
     <use xlink:href="#DejaVuSans-72" transform="translate(782.820312 0)"/>
     <use xlink:href="#DejaVuSans-61" transform="translate(823.933594 0)"/>
     <use xlink:href="#DejaVuSans-6e" transform="translate(885.212891 0)"/>
     <use xlink:href="#DejaVuSans-6b" transform="translate(948.591797 0)"/>
     <use xlink:href="#DejaVuSans-20" transform="translate(1006.501953 0)"/>
     <use xlink:href="#DejaVuSans-6f" transform="translate(1038.289062 0)"/>
     <use xlink:href="#DejaVuSans-70" transform="translate(1099.470703 0)"/>
     <use xlink:href="#DejaVuSans-65" transform="translate(1162.947266 0)"/>
     <use xlink:href="#DejaVuSans-72" transform="translate(1224.470703 0)"/>
     <use xlink:href="#DejaVuSans-61" transform="translate(1265.583984 0)"/>
     <use xlink:href="#DejaVuSans-74" transform="translate(1326.863281 0)"/>
     <use xlink:href="#DejaVuSans-6f" transform="translate(1366.072266 0)"/>
     <use xlink:href="#DejaVuSans-72" transform="translate(1427.253906 0)"/>
    </g>
   </g>
   <g id="text_6">
    <!-- delta mean -->
    <g style="fill: #0f172a" transform="translate(89.755906 310.382516) scale(0.11 -0.11)">
     <use xlink:href="#DejaVuSans-64"/>
     <use xlink:href="#DejaVuSans-65" transform="translate(63.476562 0)"/>
     <use xlink:href="#DejaVuSans-6c" transform="translate(125 0)"/>
     <use xlink:href="#DejaVuSans-74" transform="translate(152.783203 0)"/>
     <use xlink:href="#DejaVuSans-61" transform="translate(191.992188 0)"/>
     <use xlink:href="#DejaVuSans-20" transform="translate(253.271484 0)"/>
     <use xlink:href="#DejaVuSans-6d" transform="translate(285.058594 0)"/>
     <use xlink:href="#DejaVuSans-65" transform="translate(382.470703 0)"/>
     <use xlink:href="#DejaVuSans-61" transform="translate(443.994141 0)"/>
     <use xlink:href="#DejaVuSans-6e" transform="translate(505.273438 0)"/>
    </g>
    <!-- (B × G) -->
    <g style="fill: #0f172a" transform="translate(100.600359 322.700109) scale(0.11 -0.11)">
     <use xlink:href="#DejaVuSans-28"/>
     <use xlink:href="#DejaVuSans-42" transform="translate(39.013672 0)"/>
     <use xlink:href="#DejaVuSans-20" transform="translate(107.617188 0)"/>
     <use xlink:href="#DejaVuSans-d7" transform="translate(139.404297 0)"/>
     <use xlink:href="#DejaVuSans-20" transform="translate(223.193359 0)"/>
     <use xlink:href="#DejaVuSans-47" transform="translate(254.980469 0)"/>
     <use xlink:href="#DejaVuSans-29" transform="translate(332.470703 0)"/>
    </g>
   </g>
   <g id="text_7">
    <!-- delta variance -->
    <g style="fill: #0f172a" transform="translate(300.410344 310.382516) scale(0.11 -0.11)">
     <defs>
      <path id="DejaVuSans-76" d="M 191 3500 
L 800 3500 
L 1894 563 
L 2988 3500 
L 3597 3500 
L 2284 0 
L 1503 0 
L 191 3500 
z
" transform="scale(0.015625)"/>
      <path id="DejaVuSans-63" d="M 3122 3366 
L 3122 2828 
Q 2878 2963 2633 3030 
Q 2388 3097 2138 3097 
Q 1578 3097 1268 2742 
Q 959 2388 959 1747 
Q 959 1106 1268 751 
Q 1578 397 2138 397 
Q 2388 397 2633 464 
Q 2878 531 3122 666 
L 3122 134 
Q 2881 22 2623 -34 
Q 2366 -91 2075 -91 
Q 1284 -91 818 406 
Q 353 903 353 1747 
Q 353 2603 823 3093 
Q 1294 3584 2113 3584 
Q 2378 3584 2631 3529 
Q 2884 3475 3122 3366 
z
" transform="scale(0.015625)"/>
     </defs>
     <use xlink:href="#DejaVuSans-64"/>
     <use xlink:href="#DejaVuSans-65" transform="translate(63.476562 0)"/>
     <use xlink:href="#DejaVuSans-6c" transform="translate(125 0)"/>
     <use xlink:href="#DejaVuSans-74" transform="translate(152.783203 0)"/>
     <use xlink:href="#DejaVuSans-61" transform="translate(191.992188 0)"/>
     <use xlink:href="#DejaVuSans-20" transform="translate(253.271484 0)"/>
     <use xlink:href="#DejaVuSans-76" transform="translate(285.058594 0)"/>
     <use xlink:href="#DejaVuSans-61" transform="translate(344.238281 0)"/>
     <use xlink:href="#DejaVuSans-72" transform="translate(405.517578 0)"/>
     <use xlink:href="#DejaVuSans-69" transform="translate(446.630859 0)"/>
     <use xlink:href="#DejaVuSans-61" transform="translate(474.414062 0)"/>
     <use xlink:href="#DejaVuSans-6e" transform="translate(535.693359 0)"/>
     <use xlink:href="#DejaVuSans-63" transform="translate(599.072266 0)"/>
     <use xlink:href="#DejaVuSans-65" transform="translate(654.052734 0)"/>
    </g>
    <!-- (B × G) -->
    <g style="fill: #0f172a" transform="translate(319.336359 322.700109) scale(0.11 -0.11)">
     <use xlink:href="#DejaVuSans-28"/>
     <use xlink:href="#DejaVuSans-42" transform="translate(39.013672 0)"/>
     <use xlink:href="#DejaVuSans-20" transform="translate(107.617188 0)"/>
     <use xlink:href="#DejaVuSans-d7" transform="translate(139.404297 0)"/>
     <use xlink:href="#DejaVuSans-20" transform="translate(223.193359 0)"/>
     <use xlink:href="#DejaVuSans-47" transform="translate(254.980469 0)"/>
     <use xlink:href="#DejaVuSans-29" transform="translate(332.470703 0)"/>
    </g>
   </g>
   <g id="text_8">
    <!-- context_id -->
    <g style="fill: #0f172a" transform="translate(45.659688 157.829944) scale(0.11 -0.11)">
     <use xlink:href="#DejaVuSans-63"/>
     <use xlink:href="#DejaVuSans-6f" transform="translate(54.980469 0)"/>
     <use xlink:href="#DejaVuSans-6e" transform="translate(116.162109 0)"/>
     <use xlink:href="#DejaVuSans-74" transform="translate(179.541016 0)"/>
     <use xlink:href="#DejaVuSans-65" transform="translate(218.75 0)"/>
     <use xlink:href="#DejaVuSans-78" transform="translate(278.523438 0)"/>
     <use xlink:href="#DejaVuSans-74" transform="translate(337.703125 0)"/>
     <use xlink:href="#DejaVuSans-5f" transform="translate(376.912109 0)"/>
     <use xlink:href="#DejaVuSans-69" transform="translate(426.912109 0)"/>
     <use xlink:href="#DejaVuSans-64" transform="translate(454.695312 0)"/>
    </g>
   </g>
   <g id="text_9">
    <!-- context -->
    <g style="fill: #0f172a" transform="translate(53.429297 202.274516) scale(0.11 -0.11)">
     <use xlink:href="#DejaVuSans-63"/>
     <use xlink:href="#DejaVuSans-6f" transform="translate(54.980469 0)"/>
     <use xlink:href="#DejaVuSans-6e" transform="translate(116.162109 0)"/>
     <use xlink:href="#DejaVuSans-74" transform="translate(179.541016 0)"/>
     <use xlink:href="#DejaVuSans-65" transform="translate(218.75 0)"/>
     <use xlink:href="#DejaVuSans-78" transform="translate(278.523438 0)"/>
     <use xlink:href="#DejaVuSans-74" transform="translate(337.703125 0)"/>
    </g>
    <!-- embedding -->
    <g style="fill: #0f172a" transform="translate(43.054063 214.592109) scale(0.11 -0.11)">
     <use xlink:href="#DejaVuSans-65"/>
     <use xlink:href="#DejaVuSans-6d" transform="translate(61.523438 0)"/>
     <use xlink:href="#DejaVuSans-62" transform="translate(158.935547 0)"/>
     <use xlink:href="#DejaVuSans-65" transform="translate(222.412109 0)"/>
     <use xlink:href="#DejaVuSans-64" transform="translate(283.935547 0)"/>
     <use xlink:href="#DejaVuSans-64" transform="translate(347.412109 0)"/>
     <use xlink:href="#DejaVuSans-69" transform="translate(410.888672 0)"/>
     <use xlink:href="#DejaVuSans-6e" transform="translate(438.671875 0)"/>
     <use xlink:href="#DejaVuSans-67" transform="translate(502.050781 0)"/>
    </g>
   </g>
   <g id="patch_20">
    <path d="M 234.864 74.067191 
Q 234.864 79.271689 234.864 82.463727 
" style="fill: none; stroke: #0f172a; stroke-width: 1.8; stroke-linecap: round"/>
    <path d="M 236.864 78.463727 
L 234.864 82.463727 
L 232.864 78.463727 
" style="fill: none; stroke: #0f172a; stroke-width: 1.8; stroke-linecap: round"/>
   </g>
   <g id="patch_21">
    <path d="M 234.864 124.517591 
Q 234.864 129.722089 234.864 132.914127 
" style="fill: none; stroke: #0f172a; stroke-width: 1.8; stroke-linecap: round"/>
    <path d="M 236.864 128.914127 
L 234.864 132.914127 
L 232.864 128.914127 
" style="fill: none; stroke: #0f172a; stroke-width: 1.8; stroke-linecap: round"/>
   </g>
   <g id="patch_22">
    <path d="M 234.864 174.967991 
Q 234.864 180.172489 234.864 183.364527 
" style="fill: none; stroke: #0f172a; stroke-width: 1.8; stroke-linecap: round"/>
    <path d="M 236.864 179.364527 
L 234.864 183.364527 
L 232.864 179.364527 
" style="fill: none; stroke: #0f172a; stroke-width: 1.8; stroke-linecap: round"/>
   </g>
   <g id="patch_23">
    <path d="M 234.864 225.418391 
Q 234.864 230.622889 234.864 233.814927 
" style="fill: none; stroke: #0f172a; stroke-width: 1.8; stroke-linecap: round"/>
    <path d="M 236.864 229.814927 
L 234.864 233.814927 
L 232.864 229.814927 
" style="fill: none; stroke: #0f172a; stroke-width: 1.8; stroke-linecap: round"/>
   </g>
   <g id="patch_24">
    <path d="M 232.90126 274.239209 
Q 177.948149 284.677172 124.97215 294.739596 
" style="fill: none; stroke: #0f172a; stroke-width: 1.8; stroke-linecap: round"/>
    <path d="M 129.275102 295.958039 
L 124.97215 294.739596 
L 128.528675 292.0283 
" style="fill: none; stroke: #0f172a; stroke-width: 1.8; stroke-linecap: round"/>
   </g>
   <g id="patch_25">
    <path d="M 236.820065 274.269562 
Q 287.315386 284.677074 335.839676 294.678339 
" style="fill: none; stroke: #0f172a; stroke-width: 1.8; stroke-linecap: round"/>
    <path d="M 332.325754 291.912051 
L 335.839676 294.678339 
L 331.518292 295.829704 
" style="fill: none; stroke: #0f172a; stroke-width: 1.8; stroke-linecap: round"/>
   </g>
   <g id="patch_26">
    <path d="M 118.8 156.949111 
Q 118.8 163.95828 118.8 168.954988 
" style="fill: none; stroke: #0f172a; stroke-width: 1.8; stroke-linecap: round"/>
    <path d="M 120.8 164.954988 
L 118.8 168.954988 
L 116.8 164.954988 
" style="fill: none; stroke: #0f172a; stroke-width: 1.8; stroke-linecap: round"/>
   </g>
   <g id="patch_27">
    <path d="M 119.607847 203.572006 
Q 129.958864 180.175369 139.495663 158.619125 
" style="fill: none; stroke: #0f172a; stroke-width: 1.8; stroke-linecap: round"/>
    <path d="M 136.048313 161.467946 
L 139.495663 158.619125 
L 139.70631 163.086298 
" style="fill: none; stroke: #0f172a; stroke-width: 1.8; stroke-linecap: round"/>
   </g>
   <g id="patch_28">
    <path d="M 119.607847 225.241994 
Q 129.958864 248.638631 139.495663 270.194875 
" style="fill: none; stroke: #0f172a; stroke-width: 1.8; stroke-linecap: round"/>
    <path d="M 139.70631 265.727702 
L 139.495663 270.194875 
L 136.048313 267.346054 
" style="fill: none; stroke: #0f172a; stroke-width: 1.8; stroke-linecap: round"/>
   </g>
   <g id="text_10">
    <!-- PerturbFM v2 (CGIO) sketch -->
    <g style="fill: #0f172a" transform="translate(20.592 25.218) scale(0.14 -0.14)">
     <defs>
      <path id="DejaVuSans-Bold-50" d="M 588 4666 
L 2584 4666 
Q 3475 4666 3951 4270 
Q 4428 3875 4428 3144 
Q 4428 2409 3951 2014 
Q 3475 1619 2584 1619 
L 1791 1619 
L 1791 0 
L 588 0 
L 588 4666 
z
M 1791 3794 
L 1791 2491 
L 2456 2491 
Q 2806 2491 2997 2661 
Q 3188 2831 3188 3144 
Q 3188 3456 2997 3625 
Q 2806 3794 2456 3794 
L 1791 3794 
z
" transform="scale(0.015625)"/>
      <path id="DejaVuSans-Bold-65" d="M 4031 1759 
L 4031 1441 
L 1416 1441 
Q 1456 1047 1700 850 
Q 1944 653 2381 653 
Q 2734 653 3104 758 
Q 3475 863 3866 1075 
L 3866 213 
Q 3469 63 3072 -14 
Q 2675 -91 2278 -91 
Q 1328 -91 801 392 
Q 275 875 275 1747 
Q 275 2603 792 3093 
Q 1309 3584 2216 3584 
Q 3041 3584 3536 3087 
Q 4031 2591 4031 1759 
z
M 2881 2131 
Q 2881 2450 2695 2645 
Q 2509 2841 2209 2841 
Q 1884 2841 1681 2658 
Q 1478 2475 1428 2131 
L 2881 2131 
z
" transform="scale(0.015625)"/>
      <path id="DejaVuSans-Bold-72" d="M 3138 2547 
Q 2991 2616 2845 2648 
Q 2700 2681 2553 2681 
Q 2122 2681 1889 2404 
Q 1656 2128 1656 1613 
L 1656 0 
L 538 0 
L 538 3500 
L 1656 3500 
L 1656 2925 
Q 1872 3269 2151 3426 
Q 2431 3584 2822 3584 
Q 2878 3584 2943 3579 
Q 3009 3575 3134 3559 
L 3138 2547 
z
" transform="scale(0.015625)"/>
      <path id="DejaVuSans-Bold-74" d="M 1759 4494 
L 1759 3500 
L 2913 3500 
L 2913 2700 
L 1759 2700 
L 1759 1216 
Q 1759 972 1856 886 
Q 1953 800 2241 800 
L 2816 800 
L 2816 0 
L 1856 0 
Q 1194 0 917 276 
Q 641 553 641 1216 
L 641 2700 
L 84 2700 
L 84 3500 
L 641 3500 
L 641 4494 
L 1759 4494 
z
" transform="scale(0.015625)"/>
      <path id="DejaVuSans-Bold-75" d="M 500 1363 
L 500 3500 
L 1625 3500 
L 1625 3150 
Q 1625 2866 1622 2436 
Q 1619 2006 1619 1863 
Q 1619 1441 1641 1255 
Q 1663 1069 1716 984 
Q 1784 875 1895 815 
Q 2006 756 2150 756 
Q 2500 756 2700 1025 
Q 2900 1294 2900 1772 
L 2900 3500 
L 4019 3500 
L 4019 0 
L 2900 0 
L 2900 506 
Q 2647 200 2364 54 
Q 2081 -91 1741 -91 
Q 1134 -91 817 281 
Q 500 653 500 1363 
z
" transform="scale(0.015625)"/>
      <path id="DejaVuSans-Bold-62" d="M 2400 722 
Q 2759 722 2948 984 
Q 3138 1247 3138 1747 
Q 3138 2247 2948 2509 
Q 2759 2772 2400 2772 
Q 2041 2772 1848 2508 
Q 1656 2244 1656 1747 
Q 1656 1250 1848 986 
Q 2041 722 2400 722 
z
M 1656 2988 
Q 1888 3294 2169 3439 
Q 2450 3584 2816 3584 
Q 3463 3584 3878 3070 
Q 4294 2556 4294 1747 
Q 4294 938 3878 423 
Q 3463 -91 2816 -91 
Q 2450 -91 2169 54 
Q 1888 200 1656 506 
L 1656 0 
L 538 0 
L 538 4863 
L 1656 4863 
L 1656 2988 
z
" transform="scale(0.015625)"/>
      <path id="DejaVuSans-Bold-46" d="M 588 4666 
L 3834 4666 
L 3834 3756 
L 1791 3756 
L 1791 2888 
L 3713 2888 
L 3713 1978 
L 1791 1978 
L 1791 0 
L 588 0 
L 588 4666 
z
" transform="scale(0.015625)"/>
      <path id="DejaVuSans-Bold-4d" d="M 588 4666 
L 2119 4666 
L 3181 2169 
L 4250 4666 
L 5778 4666 
L 5778 0 
L 4641 0 
L 4641 3413 
L 3566 897 
L 2803 897 
L 1728 3413 
L 1728 0 
L 588 0 
L 588 4666 
z
" transform="scale(0.015625)"/>
      <path id="DejaVuSans-Bold-20" transform="scale(0.015625)"/>
      <path id="DejaVuSans-Bold-76" d="M 97 3500 
L 1216 3500 
L 2088 1081 
L 2956 3500 
L 4078 3500 
L 2700 0 
L 1472 0 
L 97 3500 
z
" transform="scale(0.015625)"/>
      <path id="DejaVuSans-Bold-32" d="M 1844 884 
L 3897 884 
L 3897 0 
L 506 0 
L 506 884 
L 2209 2388 
Q 2438 2594 2547 2791 
Q 2656 2988 2656 3200 
Q 2656 3528 2436 3728 
Q 2216 3928 1850 3928 
Q 1569 3928 1234 3808 
Q 900 3688 519 3450 
L 519 4475 
Q 925 4609 1322 4679 
Q 1719 4750 2100 4750 
Q 2938 4750 3402 4381 
Q 3866 4013 3866 3353 
Q 3866 2972 3669 2642 
Q 3472 2313 2841 1759 
L 1844 884 
z
" transform="scale(0.015625)"/>
      <path id="DejaVuSans-Bold-28" d="M 2413 -844 
L 1484 -844 
Q 1006 -72 778 623 
Q 550 1319 550 2003 
Q 550 2688 779 3389 
Q 1009 4091 1484 4856 
L 2413 4856 
Q 2013 4116 1813 3408 
Q 1613 2700 1613 2009 
Q 1613 1319 1811 609 
Q 2009 -100 2413 -844 
z
" transform="scale(0.015625)"/>
      <path id="DejaVuSans-Bold-43" d="M 4288 256 
Q 3956 84 3597 -3 
Q 3238 -91 2847 -91 
Q 1681 -91 1000 561 
Q 319 1213 319 2328 
Q 319 3447 1000 4098 
Q 1681 4750 2847 4750 
Q 3238 4750 3597 4662 
Q 3956 4575 4288 4403 
L 4288 3438 
Q 3953 3666 3628 3772 
Q 3303 3878 2944 3878 
Q 2300 3878 1931 3465 
Q 1563 3053 1563 2328 
Q 1563 1606 1931 1193 
Q 2300 781 2944 781 
Q 3303 781 3628 887 
Q 3953 994 4288 1222 
L 4288 256 
z
" transform="scale(0.015625)"/>
      <path id="DejaVuSans-Bold-47" d="M 4781 347 
Q 4331 128 3847 18 
Q 3363 -91 2847 -91 
Q 1681 -91 1000 561 
Q 319 1213 319 2328 
Q 319 3456 1012 4103 
Q 1706 4750 2913 4750 
Q 3378 4750 3804 4662 
Q 4231 4575 4609 4403 
L 4609 3438 
Q 4219 3659 3833 3768 
Q 3447 3878 3059 3878 
Q 2341 3878 1952 3476 
Q 1563 3075 1563 2328 
Q 1563 1588 1938 1184 
Q 2313 781 3003 781 
Q 3191 781 3352 804 
Q 3513 828 3641 878 
L 3641 1784 
L 2906 1784 
L 2906 2591 
L 4781 2591 
L 4781 347 
z
" transform="scale(0.015625)"/>
      <path id="DejaVuSans-Bold-49" d="M 588 4666 
L 1791 4666 
L 1791 0 
L 588 0 
L 588 4666 
z
" transform="scale(0.015625)"/>
      <path id="DejaVuSans-Bold-4f" d="M 2719 3878 
Q 2169 3878 1866 3472 
Q 1563 3066 1563 2328 
Q 1563 1594 1866 1187 
Q 2169 781 2719 781 
Q 3272 781 3575 1187 
Q 3878 1594 3878 2328 
Q 3878 3066 3575 3472 
Q 3272 3878 2719 3878 
z
M 2719 4750 
Q 3844 4750 4481 4106 
Q 5119 3463 5119 2328 
Q 5119 1197 4481 553 
Q 3844 -91 2719 -91 
Q 1597 -91 958 553 
Q 319 1197 319 2328 
Q 319 3463 958 4106 
Q 1597 4750 2719 4750 
z
" transform="scale(0.015625)"/>
      <path id="DejaVuSans-Bold-29" d="M 513 -844 
Q 913 -100 1113 609 
Q 1313 1319 1313 2009 
Q 1313 2700 1113 3408 
Q 913 4116 513 4856 
L 1441 4856 
Q 1916 4091 2145 3389 
Q 2375 2688 2375 2003 
Q 2375 1319 2147 623 
Q 1919 -72 1441 -844 
L 513 -844 
z
" transform="scale(0.015625)"/>
      <path id="DejaVuSans-Bold-73" d="M 3272 3391 
L 3272 2541 
Q 2913 2691 2578 2766 
Q 2244 2841 1947 2841 
Q 1628 2841 1473 2761 
Q 1319 2681 1319 2516 
Q 1319 2381 1436 2309 
Q 1553 2238 1856 2203 
L 2053 2175 
Q 2913 2066 3209 1816 
Q 3506 1566 3506 1031 
Q 3506 472 3093 190 
Q 2681 -91 1863 -91 
Q 1516 -91 1145 -36 
Q 775 19 384 128 
L 384 978 
Q 719 816 1070 734 
Q 1422 653 1784 653 
Q 2113 653 2278 743 
Q 2444 834 2444 1013 
Q 2444 1163 2330 1236 
Q 2216 1309 1875 1350 
L 1678 1375 
Q 931 1469 631 1722 
Q 331 1975 331 2491 
Q 331 3047 712 3315 
Q 1094 3584 1881 3584 
Q 2191 3584 2531 3537 
Q 2872 3491 3272 3391 
z
" transform="scale(0.015625)"/>
      <path id="DejaVuSans-Bold-6b" d="M 538 4863 
L 1656 4863 
L 1656 2216 
L 2944 3500 
L 4244 3500 
L 2534 1894 
L 4378 0 
L 3022 0 
L 1656 1459 
L 1656 0 
L 538 0 
L 538 4863 
z
" transform="scale(0.015625)"/>
      <path id="DejaVuSans-Bold-63" d="M 3366 3391 
L 3366 2478 
Q 3138 2634 2908 2709 
Q 2678 2784 2431 2784 
Q 1963 2784 1702 2511 
Q 1441 2238 1441 1747 
Q 1441 1256 1702 982 
Q 1963 709 2431 709 
Q 2694 709 2930 787 
Q 3166 866 3366 1019 
L 3366 103 
Q 3103 6 2833 -42 
Q 2563 -91 2291 -91 
Q 1344 -91 809 395 
Q 275 881 275 1747 
Q 275 2613 809 3098 
Q 1344 3584 2291 3584 
Q 2566 3584 2833 3536 
Q 3100 3488 3366 3391 
z
" transform="scale(0.015625)"/>
      <path id="DejaVuSans-Bold-68" d="M 4056 2131 
L 4056 0 
L 2931 0 
L 2931 347 
L 2931 1625 
Q 2931 2084 2911 2256 
Q 2891 2428 2841 2509 
Q 2775 2619 2662 2680 
Q 2550 2741 2406 2741 
Q 2056 2741 1856 2470 
Q 1656 2200 1656 1722 
L 1656 0 
L 538 0 
L 538 4863 
L 1656 4863 
L 1656 2988 
Q 1909 3294 2193 3439 
Q 2478 3584 2822 3584 
Q 3428 3584 3742 3212 
Q 4056 2841 4056 2131 
z
" transform="scale(0.015625)"/>
     </defs>
     <use xlink:href="#DejaVuSans-Bold-50"/>
     <use xlink:href="#DejaVuSans-Bold-65" transform="translate(73.291016 0)"/>
     <use xlink:href="#DejaVuSans-Bold-72" transform="translate(141.113281 0)"/>
     <use xlink:href="#DejaVuSans-Bold-74" transform="translate(190.429688 0)"/>
     <use xlink:href="#DejaVuSans-Bold-75" transform="translate(238.232422 0)"/>
     <use xlink:href="#DejaVuSans-Bold-72" transform="translate(309.423828 0)"/>
     <use xlink:href="#DejaVuSans-Bold-62" transform="translate(358.740234 0)"/>
     <use xlink:href="#DejaVuSans-Bold-46" transform="translate(430.322266 0)"/>
     <use xlink:href="#DejaVuSans-Bold-4d" transform="translate(498.632812 0)"/>
     <use xlink:href="#DejaVuSans-Bold-20" transform="translate(598.144531 0)"/>
     <use xlink:href="#DejaVuSans-Bold-76" transform="translate(632.958984 0)"/>
     <use xlink:href="#DejaVuSans-Bold-32" transform="translate(698.144531 0)"/>
     <use xlink:href="#DejaVuSans-Bold-20" transform="translate(767.724609 0)"/>
     <use xlink:href="#DejaVuSans-Bold-28" transform="translate(802.539062 0)"/>
     <use xlink:href="#DejaVuSans-Bold-43" transform="translate(848.242188 0)"/>
     <use xlink:href="#DejaVuSans-Bold-47" transform="translate(921.630859 0)"/>
     <use xlink:href="#DejaVuSans-Bold-49" transform="translate(1003.710938 0)"/>
     <use xlink:href="#DejaVuSans-Bold-4f" transform="translate(1040.917969 0)"/>
     <use xlink:href="#DejaVuSans-Bold-29" transform="translate(1125.927734 0)"/>
     <use xlink:href="#DejaVuSans-Bold-20" transform="translate(1171.630859 0)"/>
     <use xlink:href="#DejaVuSans-Bold-73" transform="translate(1206.445312 0)"/>
     <use xlink:href="#DejaVuSans-Bold-6b" transform="translate(1265.966797 0)"/>
     <use xlink:href="#DejaVuSans-Bold-65" transform="translate(1329.845703 0)"/>
     <use xlink:href="#DejaVuSans-Bold-74" transform="translate(1397.667969 0)"/>
     <use xlink:href="#DejaVuSans-Bold-63" transform="translate(1445.470703 0)"/>
     <use xlink:href="#DejaVuSans-Bold-68" transform="translate(1504.748047 0)"/>
    </g>
   </g>
  </g>
 </g>
 <defs>
  <clipPath id="p4e00c45262">
   <rect x="7.2" y="7.2" width="446.4" height="360.36"/>
  </clipPath>
 </defs>
</svg>
